<svg width="46" height="46" viewBox="0 0 46 46" fill="none" xmlns="http://www.w3.org/2000/svg">
<path d="M14.4556 10.9871C15.6538 10.9871 16.7619 11.0808 17.7744 11.3583C18.7888 11.5439 19.6194 11.9152 20.3563 12.3783C21.095 12.8433 21.6481 13.4921 22.0156 14.3264C22.385 15.1608 22.5706 16.1827 22.5706 17.2946C22.5706 18.5939 22.2931 19.7058 21.6481 20.5402C21.095 21.3764 20.1725 22.1171 19.0663 22.6739C20.6338 23.1389 21.8319 23.9733 22.5706 25.0871C23.3075 26.1989 23.7688 27.5902 23.7688 29.1671C23.7688 30.4664 23.4913 31.5783 23.03 32.5064C22.5706 33.4346 21.8319 34.2689 21.0013 34.8258C20.0989 35.4227 19.1016 35.8615 18.0519 36.1233C16.9456 36.4027 15.8394 36.5883 14.7331 36.5883H2.375V10.9871H14.4556ZM13.7169 21.3746C14.7313 21.3746 15.5619 21.0971 16.2069 20.6339C16.8519 20.1708 17.1294 19.3346 17.1294 18.3146C17.1294 17.7577 17.0356 17.2027 16.8519 16.8314C16.6681 16.4602 16.3906 16.1808 16.0231 15.9033C15.6538 15.7177 15.2844 15.5321 14.8231 15.4402C14.3619 15.3464 13.9025 15.3464 13.3475 15.3464H8V21.3764H13.7188L13.7169 21.3746ZM13.9944 32.3208C14.5475 32.3208 15.1006 32.2271 15.5619 32.1352C16.0231 32.0414 16.4844 31.8577 16.8519 31.5783C17.2276 31.3069 17.5419 30.9593 17.7744 30.5583C17.9581 30.0952 18.1438 29.5383 18.1438 28.8896C18.1438 27.5902 17.7744 26.6621 17.0375 26.0133C16.2988 25.4564 15.2844 25.1789 14.0863 25.1789H8V32.3227L13.9944 32.3208ZM31.7919 32.2271C32.5288 32.9696 33.635 33.3408 35.1106 33.3408C36.125 33.3408 37.0475 33.0633 37.7844 32.6002C38.5231 32.0433 38.9844 31.4864 39.1681 30.9314H43.6869C42.9481 33.1552 41.8419 34.7321 40.3681 35.7539C38.8906 36.6802 37.1394 37.2371 35.0188 37.2371C33.6619 37.2413 32.3165 36.9894 31.0531 36.4946C29.9163 36.0682 28.9024 35.3674 28.1019 34.4546C27.2456 33.6006 26.6126 32.5491 26.2588 31.3927C25.7975 30.1871 25.6119 28.8896 25.6119 27.4046C25.6119 26.0133 25.7975 24.7158 26.2588 23.5083C26.703 22.3465 27.3598 21.2776 28.1956 20.3564C29.0377 19.4918 30.0393 18.7984 31.145 18.3146C32.3763 17.8197 33.6917 17.5676 35.0188 17.5721C36.5863 17.5721 37.97 17.8514 39.1681 18.5002C40.3681 19.1489 41.2888 19.8914 42.0256 21.0052C42.7644 22.0252 43.3194 23.2308 43.6869 24.5302C43.8706 25.8277 43.9625 27.1271 43.8706 28.6102H30.5C30.5 30.0952 31.0531 31.4864 31.7919 32.2289V32.2271ZM37.6006 22.4883C36.9556 21.8396 35.9413 21.4683 34.7413 21.4683C33.9125 21.4683 33.2656 21.6558 32.7125 21.9333C32.1594 22.2108 31.7919 22.5821 31.4225 22.9533C31.0825 23.3117 30.8572 23.7635 30.7756 24.2508C30.6838 24.7158 30.5919 25.0871 30.5919 25.4564H38.8906C38.7069 24.0652 38.2456 23.1389 37.6006 22.4883ZM29.4856 12.7496H39.8131V15.2546H29.4875V12.7496H29.4856Z" fill="black"/>
</svg>
