<svg width="46" height="46" viewBox="0 0 46 46" fill="none" xmlns="http://www.w3.org/2000/svg">
<path d="M23 4.70605C20.5377 4.70605 18.0995 5.19104 15.8247 6.13331C13.5498 7.07559 11.4828 8.4567 9.74175 10.1978C6.22544 13.7141 4.25 18.4832 4.25 23.4561C4.25 31.7436 9.63125 38.7748 17.075 41.2686C18.0125 41.4186 18.3125 40.8373 18.3125 40.3311V37.1623C13.1188 38.2873 12.0125 34.6498 12.0125 34.6498C11.15 32.4748 9.93125 31.8936 9.93125 31.8936C8.225 30.7311 10.0625 30.7686 10.0625 30.7686C11.9375 30.8998 12.9313 32.6998 12.9313 32.6998C14.5625 35.5498 17.3188 34.7061 18.3875 34.2561C18.5563 33.0373 19.0438 32.2123 19.5688 31.7436C15.4063 31.2748 11.0375 29.6623 11.0375 22.5186C11.0375 20.4373 11.75 18.7686 12.9688 17.4373C12.7813 16.9686 12.125 15.0186 13.1563 12.4873C13.1563 12.4873 14.7313 11.9811 18.3125 14.3998C19.7938 13.9873 21.4063 13.7811 23 13.7811C24.5938 13.7811 26.2063 13.9873 27.6875 14.3998C31.2688 11.9811 32.8438 12.4873 32.8438 12.4873C33.875 15.0186 33.2188 16.9686 33.0313 17.4373C34.25 18.7686 34.9625 20.4373 34.9625 22.5186C34.9625 29.6811 30.575 31.2561 26.3938 31.7248C27.0688 32.3061 27.6875 33.4498 27.6875 35.1936V40.3311C27.6875 40.8373 27.9875 41.4373 28.9438 41.2686C36.3875 38.7561 41.75 31.7436 41.75 23.4561C41.75 20.9938 41.265 18.5556 40.3228 16.2807C39.3805 14.0059 37.9994 11.9389 36.2583 10.1978C34.5172 8.4567 32.4502 7.07559 30.1753 6.13331C27.9005 5.19104 25.4623 4.70605 23 4.70605Z" fill="black"/>
</svg>
