<svg width="781" height="483" viewBox="0 0 781 483" fill="none" xmlns="http://www.w3.org/2000/svg">
<mask id="path-1-outside-1_469_1640" maskUnits="userSpaceOnUse" x="501.372" y="6.34436" width="212" height="466" fill="black">
<rect fill="white" x="501.372" y="6.34436" width="212" height="466"/>
<path d="M709.926 10.3444V468.687H613.02V102.326H610.335L505.372 168.123V82.1842L618.839 10.3444H709.926Z"/>
</mask>
<path d="M709.926 10.3444V468.687H613.02V102.326H610.335L505.372 168.123V82.1842L618.839 10.3444H709.926Z" stroke="#292929" stroke-width="6.81967" mask="url(#path-1-outside-1_469_1640)"/>
<mask id="path-2-outside-2_469_1640" maskUnits="userSpaceOnUse" x="67.2542" y="0.078125" width="378" height="483" fill="black">
<rect fill="white" x="67.2542" y="0.078125" width="378" height="483"/>
<path d="M256.339 478.758C217.845 478.609 184.723 469.135 156.972 450.336C129.37 431.536 108.109 404.307 93.1888 368.649C78.418 332.99 71.1072 290.095 71.2564 239.963C71.2564 189.981 78.6418 147.385 93.4126 112.174C108.333 76.9624 129.594 50.181 157.196 31.8294C184.947 13.3285 217.995 4.07812 256.339 4.07812C294.684 4.07812 327.657 13.3285 355.259 31.8294C383.01 50.3302 404.346 77.1862 419.266 112.397C434.186 147.459 441.571 189.981 441.422 239.963C441.422 290.244 433.962 333.214 419.042 368.872C404.271 404.531 383.085 431.76 355.483 450.559C327.881 469.359 294.833 478.758 256.339 478.758ZM256.339 398.414C282.598 398.414 303.561 385.21 319.227 358.801C334.893 332.393 342.651 292.78 342.502 239.963C342.502 205.2 338.921 176.255 331.76 153.129C324.747 130.003 314.751 112.621 301.771 100.984C288.939 89.346 273.795 83.5272 256.339 83.5272C230.229 83.5272 209.341 96.5822 193.675 122.692C178.009 148.802 170.101 187.893 169.952 239.963C169.952 275.175 173.458 304.567 180.471 328.141C187.632 351.565 197.703 369.171 210.684 380.958C223.664 392.595 238.883 398.414 256.339 398.414Z"/>
</mask>
<path d="M256.339 478.758C217.845 478.609 184.723 469.135 156.972 450.336C129.37 431.536 108.109 404.307 93.1888 368.649C78.418 332.99 71.1072 290.095 71.2564 239.963C71.2564 189.981 78.6418 147.385 93.4126 112.174C108.333 76.9624 129.594 50.181 157.196 31.8294C184.947 13.3285 217.995 4.07812 256.339 4.07812C294.684 4.07812 327.657 13.3285 355.259 31.8294C383.01 50.3302 404.346 77.1862 419.266 112.397C434.186 147.459 441.571 189.981 441.422 239.963C441.422 290.244 433.962 333.214 419.042 368.872C404.271 404.531 383.085 431.76 355.483 450.559C327.881 469.359 294.833 478.758 256.339 478.758ZM256.339 398.414C282.598 398.414 303.561 385.21 319.227 358.801C334.893 332.393 342.651 292.78 342.502 239.963C342.502 205.2 338.921 176.255 331.76 153.129C324.747 130.003 314.751 112.621 301.771 100.984C288.939 89.346 273.795 83.5272 256.339 83.5272C230.229 83.5272 209.341 96.5822 193.675 122.692C178.009 148.802 170.101 187.893 169.952 239.963C169.952 275.175 173.458 304.567 180.471 328.141C187.632 351.565 197.703 369.171 210.684 380.958C223.664 392.595 238.883 398.414 256.339 398.414Z" stroke="#292929" stroke-width="6.81967" mask="url(#path-2-outside-2_469_1640)"/>
</svg>
