<svg width="781" height="483" viewBox="0 0 781 483" fill="none" xmlns="http://www.w3.org/2000/svg">
<mask id="path-1-outside-1_469_1639" maskUnits="userSpaceOnUse" x="440.783" y="0.0981445" width="326" height="474" fill="black">
<rect fill="white" x="440.783" y="0.0981445" width="326" height="474"/>
<path d="M447.478 470.27V410.09L607.135 253.577C622.405 238.157 635.129 224.46 645.309 212.483C655.489 200.507 663.124 188.905 668.213 177.678C673.303 166.45 675.848 154.474 675.848 141.749C675.848 127.228 672.555 114.803 665.968 104.473C659.381 93.9943 650.324 85.9103 638.797 80.2217C627.27 74.533 614.171 71.6886 599.5 71.6886C584.38 71.6886 571.132 74.8324 559.754 81.1199C548.377 87.2576 539.545 96.0152 533.257 107.393C527.119 118.77 524.05 132.318 524.05 148.037H444.783C444.783 118.845 451.445 93.4703 464.768 71.9132C478.092 50.3561 496.43 33.6643 519.784 21.8379C543.287 10.0114 570.233 4.09814 600.623 4.09814C631.462 4.09814 658.558 9.86167 681.911 21.3887C705.265 32.9158 723.379 48.7094 736.253 68.7695C749.277 88.8295 755.789 111.734 755.789 137.483C755.789 154.698 752.496 171.615 745.909 188.232C739.322 204.849 727.72 223.262 711.103 243.472C694.636 263.682 671.507 288.158 641.716 316.901L562.449 397.515V400.659H762.75V470.27H447.478Z"/>
</mask>
<path d="M447.478 470.27V410.09L607.135 253.577C622.405 238.157 635.129 224.46 645.309 212.483C655.489 200.507 663.124 188.905 668.213 177.678C673.303 166.45 675.848 154.474 675.848 141.749C675.848 127.228 672.555 114.803 665.968 104.473C659.381 93.9943 650.324 85.9103 638.797 80.2217C627.27 74.533 614.171 71.6886 599.5 71.6886C584.38 71.6886 571.132 74.8324 559.754 81.1199C548.377 87.2576 539.545 96.0152 533.257 107.393C527.119 118.77 524.05 132.318 524.05 148.037H444.783C444.783 118.845 451.445 93.4703 464.768 71.9132C478.092 50.3561 496.43 33.6643 519.784 21.8379C543.287 10.0114 570.233 4.09814 600.623 4.09814C631.462 4.09814 658.558 9.86167 681.911 21.3887C705.265 32.9158 723.379 48.7094 736.253 68.7695C749.277 88.8295 755.789 111.734 755.789 137.483C755.789 154.698 752.496 171.615 745.909 188.232C739.322 204.849 727.72 223.262 711.103 243.472C694.636 263.682 671.507 288.158 641.716 316.901L562.449 397.515V400.659H762.75V470.27H447.478Z" stroke="#292929" stroke-width="6.81967" mask="url(#path-1-outside-1_469_1639)"/>
<mask id="path-2-outside-2_469_1639" maskUnits="userSpaceOnUse" x="14.4016" y="0.0981445" width="362" height="483" fill="black">
<rect fill="white" x="14.4016" y="0.0981445" width="362" height="483"/>
<path d="M195.625 479.165C158.638 479.165 126.892 469.806 100.387 451.088C74.032 432.22 53.7415 405.041 39.5157 369.552C25.4396 333.912 18.4016 291.01 18.4016 240.846C18.5514 190.681 25.6643 148.003 39.7403 112.813C53.9661 77.4734 74.2567 50.5192 100.612 31.9508C127.117 13.3824 158.788 4.09814 195.625 4.09814C232.463 4.09814 264.134 13.3824 290.639 31.9508C317.144 50.5192 337.434 77.4734 351.51 112.813C365.736 148.153 372.849 190.831 372.849 240.846C372.849 291.16 365.736 334.137 351.51 369.776C337.434 405.266 317.144 432.37 290.639 451.088C264.284 469.806 232.612 479.165 195.625 479.165ZM195.625 408.86C224.376 408.86 247.063 394.709 263.685 366.407C280.456 337.956 288.842 296.102 288.842 240.846C288.842 204.308 285.023 173.61 277.386 148.752C269.749 123.894 258.968 105.176 245.041 92.5977C231.115 79.8693 214.643 73.5051 195.625 73.5051C167.024 73.5051 144.412 87.7309 127.791 116.183C111.169 144.484 102.783 186.039 102.633 240.846C102.484 277.533 106.152 308.381 113.64 333.388C121.277 358.396 132.058 377.264 145.985 389.992C159.911 402.571 176.458 408.86 195.625 408.86Z"/>
</mask>
<path d="M195.625 479.165C158.638 479.165 126.892 469.806 100.387 451.088C74.032 432.22 53.7415 405.041 39.5157 369.552C25.4396 333.912 18.4016 291.01 18.4016 240.846C18.5514 190.681 25.6643 148.003 39.7403 112.813C53.9661 77.4734 74.2567 50.5192 100.612 31.9508C127.117 13.3824 158.788 4.09814 195.625 4.09814C232.463 4.09814 264.134 13.3824 290.639 31.9508C317.144 50.5192 337.434 77.4734 351.51 112.813C365.736 148.153 372.849 190.831 372.849 240.846C372.849 291.16 365.736 334.137 351.51 369.776C337.434 405.266 317.144 432.37 290.639 451.088C264.284 469.806 232.612 479.165 195.625 479.165ZM195.625 408.86C224.376 408.86 247.063 394.709 263.685 366.407C280.456 337.956 288.842 296.102 288.842 240.846C288.842 204.308 285.023 173.61 277.386 148.752C269.749 123.894 258.968 105.176 245.041 92.5977C231.115 79.8693 214.643 73.5051 195.625 73.5051C167.024 73.5051 144.412 87.7309 127.791 116.183C111.169 144.484 102.783 186.039 102.633 240.846C102.484 277.533 106.152 308.381 113.64 333.388C121.277 358.396 132.058 377.264 145.985 389.992C159.911 402.571 176.458 408.86 195.625 408.86Z" stroke="#292929" stroke-width="6.81967" mask="url(#path-2-outside-2_469_1639)"/>
</svg>
