<svg width="787" height="483" viewBox="0 0 787 483" fill="none" xmlns="http://www.w3.org/2000/svg">
<mask id="path-1-outside-1_469_1637" maskUnits="userSpaceOnUse" x="421.118" y="6.40091" width="366" height="468" fill="black">
<rect fill="white" x="421.118" y="6.40091" width="366" height="468"/>
<path d="M425.118 385.064V318.802L620.312 10.4009H675.568V104.741H641.875L510.473 312.962V316.555H782.935V385.064H425.118ZM644.57 470.419V364.848L645.469 335.199V10.4009H724.085V470.419H644.57Z"/>
</mask>
<path d="M425.118 385.064V318.802L620.312 10.4009H675.568V104.741H641.875L510.473 312.962V316.555H782.935V385.064H425.118ZM644.57 470.419V364.848L645.469 335.199V10.4009H724.085V470.419H644.57Z" stroke="#292929" stroke-width="6.81967" mask="url(#path-1-outside-1_469_1637)"/>
<mask id="path-2-outside-2_469_1637" maskUnits="userSpaceOnUse" x="0.352417" y="0.111603" width="362" height="483" fill="black">
<rect fill="white" x="0.352417" y="0.111603" width="362" height="483"/>
<path d="M181.576 479.179C144.589 479.179 112.843 469.82 86.338 451.102C59.9828 432.234 39.6923 405.055 25.4665 369.565C11.3904 333.926 4.35242 291.024 4.35242 240.859C4.50216 190.694 11.6151 148.017 25.6911 112.827C39.917 77.4869 60.2075 50.5327 86.5627 31.9643C113.068 13.3958 144.739 4.1116 181.576 4.1116C218.414 4.1116 250.085 13.3958 276.59 31.9643C303.095 50.5327 323.385 77.4869 337.461 112.827C351.687 148.167 358.8 190.844 358.8 240.859C358.8 291.174 351.687 334.15 337.461 369.79C323.385 405.28 303.095 432.383 276.59 451.102C250.234 469.82 218.563 479.179 181.576 479.179ZM181.576 408.873C210.327 408.873 233.014 394.723 249.635 366.421C266.407 337.969 274.793 296.115 274.793 240.859C274.793 204.321 270.974 173.623 263.337 148.766C255.7 123.908 244.918 105.19 230.992 92.6111C217.066 79.8828 200.594 73.5186 181.576 73.5186C152.975 73.5186 130.363 87.7444 113.741 116.196C97.1197 144.498 88.734 186.052 88.5842 240.859C88.4345 277.547 92.1032 308.394 99.5905 333.402C107.228 358.409 118.009 377.277 131.936 390.006C145.862 402.584 162.409 408.873 181.576 408.873Z"/>
</mask>
<path d="M181.576 479.179C144.589 479.179 112.843 469.82 86.338 451.102C59.9828 432.234 39.6923 405.055 25.4665 369.565C11.3904 333.926 4.35242 291.024 4.35242 240.859C4.50216 190.694 11.6151 148.017 25.6911 112.827C39.917 77.4869 60.2075 50.5327 86.5627 31.9643C113.068 13.3958 144.739 4.1116 181.576 4.1116C218.414 4.1116 250.085 13.3958 276.59 31.9643C303.095 50.5327 323.385 77.4869 337.461 112.827C351.687 148.167 358.8 190.844 358.8 240.859C358.8 291.174 351.687 334.15 337.461 369.79C323.385 405.28 303.095 432.383 276.59 451.102C250.234 469.82 218.563 479.179 181.576 479.179ZM181.576 408.873C210.327 408.873 233.014 394.723 249.635 366.421C266.407 337.969 274.793 296.115 274.793 240.859C274.793 204.321 270.974 173.623 263.337 148.766C255.7 123.908 244.918 105.19 230.992 92.6111C217.066 79.8828 200.594 73.5186 181.576 73.5186C152.975 73.5186 130.363 87.7444 113.741 116.196C97.1197 144.498 88.734 186.052 88.5842 240.859C88.4345 277.547 92.1032 308.394 99.5905 333.402C107.228 358.409 118.009 377.277 131.936 390.006C145.862 402.584 162.409 408.873 181.576 408.873Z" stroke="#292929" stroke-width="6.81967" mask="url(#path-2-outside-2_469_1637)"/>
</svg>
