<svg width="781" height="483" viewBox="0 0 781 483" fill="none" xmlns="http://www.w3.org/2000/svg">
<mask id="path-1-outside-1_469_1638" maskUnits="userSpaceOnUse" x="429.655" y="0.111603" width="346" height="481" fill="black">
<rect fill="white" x="429.655" y="0.111603" width="346" height="481"/>
<path d="M602.344 476.708C569.999 476.708 541.247 471.168 516.09 460.086C491.083 449.005 471.316 433.581 456.791 413.815C442.266 394.049 434.554 371.212 433.655 345.307H518.112C518.86 357.735 522.978 368.592 530.466 377.876C537.953 387.011 547.911 394.124 560.34 399.215C572.769 404.306 586.695 406.852 602.119 406.852C618.591 406.852 633.191 404.007 645.919 398.316C658.648 392.476 668.606 384.39 675.794 374.058C682.981 363.725 686.5 351.82 686.351 338.343C686.5 324.417 682.907 312.138 675.569 301.506C668.231 290.874 657.6 282.563 643.673 276.573C629.897 270.584 613.275 267.589 593.808 267.589H553.152V203.348H593.808C609.831 203.348 623.832 200.578 635.812 195.037C647.941 189.496 657.45 181.71 664.338 171.677C671.226 161.494 674.596 149.739 674.446 136.412C674.596 123.384 671.676 112.078 665.686 102.494C659.846 92.7609 651.535 85.1987 640.753 79.8079C630.121 74.4171 617.618 71.7216 603.242 71.7216C589.166 71.7216 576.138 74.2673 564.158 79.3587C552.179 84.45 542.52 91.7127 535.183 101.147C527.845 110.431 523.952 121.512 523.503 134.39H443.314C443.913 108.634 451.325 86.0223 465.551 66.5554C479.927 46.9388 499.094 31.6648 523.053 20.7334C547.013 9.65219 573.892 4.1116 603.691 4.1116C634.389 4.1116 661.044 9.8768 683.655 21.4072C706.417 32.7878 724.012 48.1368 736.441 67.4539C748.869 86.7711 755.084 108.11 755.084 131.47C755.234 157.376 747.597 179.089 732.173 196.609C716.899 214.13 696.833 225.585 671.975 230.976V234.57C704.32 239.062 729.103 251.042 746.324 270.509C763.694 289.826 772.305 313.86 772.155 342.611C772.155 368.367 764.817 391.428 750.142 411.793C735.617 432.009 715.551 447.882 689.945 459.413C664.488 470.943 635.287 476.708 602.344 476.708Z"/>
</mask>
<path d="M602.344 476.708C569.999 476.708 541.247 471.168 516.09 460.086C491.083 449.005 471.316 433.581 456.791 413.815C442.266 394.049 434.554 371.212 433.655 345.307H518.112C518.86 357.735 522.978 368.592 530.466 377.876C537.953 387.011 547.911 394.124 560.34 399.215C572.769 404.306 586.695 406.852 602.119 406.852C618.591 406.852 633.191 404.007 645.919 398.316C658.648 392.476 668.606 384.39 675.794 374.058C682.981 363.725 686.5 351.82 686.351 338.343C686.5 324.417 682.907 312.138 675.569 301.506C668.231 290.874 657.6 282.563 643.673 276.573C629.897 270.584 613.275 267.589 593.808 267.589H553.152V203.348H593.808C609.831 203.348 623.832 200.578 635.812 195.037C647.941 189.496 657.45 181.71 664.338 171.677C671.226 161.494 674.596 149.739 674.446 136.412C674.596 123.384 671.676 112.078 665.686 102.494C659.846 92.7609 651.535 85.1987 640.753 79.8079C630.121 74.4171 617.618 71.7216 603.242 71.7216C589.166 71.7216 576.138 74.2673 564.158 79.3587C552.179 84.45 542.52 91.7127 535.183 101.147C527.845 110.431 523.952 121.512 523.503 134.39H443.314C443.913 108.634 451.325 86.0223 465.551 66.5554C479.927 46.9388 499.094 31.6648 523.053 20.7334C547.013 9.65219 573.892 4.1116 603.691 4.1116C634.389 4.1116 661.044 9.8768 683.655 21.4072C706.417 32.7878 724.012 48.1368 736.441 67.4539C748.869 86.7711 755.084 108.11 755.084 131.47C755.234 157.376 747.597 179.089 732.173 196.609C716.899 214.13 696.833 225.585 671.975 230.976V234.57C704.32 239.062 729.103 251.042 746.324 270.509C763.694 289.826 772.305 313.86 772.155 342.611C772.155 368.367 764.817 391.428 750.142 411.793C735.617 432.009 715.551 447.882 689.945 459.413C664.488 470.943 635.287 476.708 602.344 476.708Z" stroke="#292929" stroke-width="6.81967" mask="url(#path-1-outside-1_469_1638)"/>
<mask id="path-2-outside-2_469_1638" maskUnits="userSpaceOnUse" x="4.17212" y="0.111603" width="362" height="483" fill="black">
<rect fill="white" x="4.17212" y="0.111603" width="362" height="483"/>
<path d="M185.396 479.179C148.409 479.179 116.663 469.82 90.1577 451.102C63.8025 432.234 43.512 405.055 29.2862 369.565C15.2102 333.926 8.17212 291.024 8.17212 240.859C8.32186 190.694 15.4348 148.017 29.5108 112.827C43.7367 77.4869 64.0272 50.5327 90.3824 31.9643C116.887 13.3958 148.558 4.1116 185.396 4.1116C222.233 4.1116 253.904 13.3958 280.409 31.9643C306.914 50.5327 327.205 77.4869 341.281 112.827C355.507 148.167 362.62 190.844 362.62 240.859C362.62 291.174 355.507 334.15 341.281 369.79C327.205 405.28 306.914 432.383 280.409 451.102C254.054 469.82 222.383 479.179 185.396 479.179ZM185.396 408.873C214.147 408.873 236.833 394.723 253.455 366.421C270.227 337.969 278.612 296.115 278.612 240.859C278.612 204.321 274.794 173.623 267.157 148.766C259.52 123.908 248.738 105.19 234.812 92.6111C220.885 79.8828 204.414 73.5186 185.396 73.5186C156.794 73.5186 134.183 87.7444 117.561 116.196C100.939 144.498 92.5537 186.052 92.4039 240.859C92.2542 277.547 95.9229 308.394 103.41 333.402C111.047 358.409 121.829 377.277 135.755 390.006C149.682 402.584 166.228 408.873 185.396 408.873Z"/>
</mask>
<path d="M185.396 479.179C148.409 479.179 116.663 469.82 90.1577 451.102C63.8025 432.234 43.512 405.055 29.2862 369.565C15.2102 333.926 8.17212 291.024 8.17212 240.859C8.32186 190.694 15.4348 148.017 29.5108 112.827C43.7367 77.4869 64.0272 50.5327 90.3824 31.9643C116.887 13.3958 148.558 4.1116 185.396 4.1116C222.233 4.1116 253.904 13.3958 280.409 31.9643C306.914 50.5327 327.205 77.4869 341.281 112.827C355.507 148.167 362.62 190.844 362.62 240.859C362.62 291.174 355.507 334.15 341.281 369.79C327.205 405.28 306.914 432.383 280.409 451.102C254.054 469.82 222.383 479.179 185.396 479.179ZM185.396 408.873C214.147 408.873 236.833 394.723 253.455 366.421C270.227 337.969 278.612 296.115 278.612 240.859C278.612 204.321 274.794 173.623 267.157 148.766C259.52 123.908 248.738 105.19 234.812 92.6111C220.885 79.8828 204.414 73.5186 185.396 73.5186C156.794 73.5186 134.183 87.7444 117.561 116.196C100.939 144.498 92.5537 186.052 92.4039 240.859C92.2542 277.547 95.9229 308.394 103.41 333.402C111.047 358.409 121.829 377.277 135.755 390.006C149.682 402.584 166.228 408.873 185.396 408.873Z" stroke="#292929" stroke-width="6.81967" mask="url(#path-2-outside-2_469_1638)"/>
</svg>
