<svg width="24" height="25" viewBox="0 0 24 25" fill="none" xmlns="http://www.w3.org/2000/svg">
<path d="M3.75 18.1699C3.75 18.7666 4.23748 19.2499 4.83811 19.2499H4.85375C4.24393 19.2499 3.75 18.7666 3.75 18.1699Z" fill="#FBBC05"/>
<path d="M13.1006 9.79998V12.6197L16.9021 9.55338V6.82999C16.9021 6.2333 16.4146 5.75 15.814 5.75H7.57816L7.5708 9.79998H13.1006Z" fill="#FBBC05"/>
<path d="M13.1006 15.4408H7.56161L7.55518 19.2505H15.814C16.4155 19.2505 16.9021 18.7672 16.9021 18.1705V15.7117L13.1006 12.6211V15.4408Z" fill="#34A853"/>
<path d="M7.57816 5.75L3.75 9.79998H7.57172L7.57816 5.75Z" fill="#EA4335"/>
<path d="M3.75 15.4404V18.1701C3.75 18.7668 4.24393 19.2501 4.85375 19.2501H7.55517L7.56161 15.4404H3.75Z" fill="#1967D2"/>
<path d="M7.57172 9.7998H3.75V15.4401H7.56161L7.57172 9.7998Z" fill="#4285F4"/>
<path d="M20.2446 17.2097V7.93977C20.0303 6.70948 18.681 8.11977 18.681 8.11977L16.903 9.55347V15.7103L19.4481 17.7794C20.3669 17.9 20.2446 17.2097 20.2446 17.2097Z" fill="#34A853"/>
<path d="M13.1006 12.6196L16.903 15.7111V9.5542L13.1006 12.6196Z" fill="#188038"/>
</svg>
