<svg width="46" height="46" viewBox="0 0 46 46" fill="none" xmlns="http://www.w3.org/2000/svg">
<path d="M36.125 6.58105C37.1196 6.58105 38.0734 6.97614 38.7766 7.6794C39.4799 8.38267 39.875 9.33649 39.875 10.3311V36.5811C39.875 37.5756 39.4799 38.5294 38.7766 39.2327C38.0734 39.936 37.1196 40.3311 36.125 40.3311H9.875C8.88044 40.3311 7.92661 39.936 7.22335 39.2327C6.52009 38.5294 6.125 37.5756 6.125 36.5811V10.3311C6.125 9.33649 6.52009 8.38267 7.22335 7.6794C7.92661 6.97614 8.88044 6.58105 9.875 6.58105H36.125ZM35.1875 35.6436V25.7061C35.1875 24.0849 34.5435 22.5302 33.3972 21.3839C32.2509 20.2375 30.6961 19.5936 29.075 19.5936C27.4812 19.5936 25.625 20.5686 24.725 22.0311V19.9498H19.4938V35.6436H24.725V26.3998C24.725 24.9561 25.8875 23.7748 27.3313 23.7748C28.0274 23.7748 28.6951 24.0514 29.1874 24.5436C29.6797 25.0359 29.9563 25.7036 29.9563 26.3998V35.6436H35.1875ZM13.4 17.0061C14.2354 17.0061 15.0366 16.6742 15.6274 16.0834C16.2181 15.4927 16.55 14.6915 16.55 13.8561C16.55 12.1123 15.1438 10.6873 13.4 10.6873C12.5596 10.6873 11.7536 11.0212 11.1594 11.6154C10.5651 12.2097 10.2313 13.0157 10.2313 13.8561C10.2313 15.5998 11.6563 17.0061 13.4 17.0061ZM16.0063 35.6436V19.9498H10.8125V35.6436H16.0063Z" fill="black"/>
</svg>
